<svg version="1.1" id="Layer_1" xmlns="http://www.w3.org/2000/svg" x="0" y="0" viewBox="0 0 285.16 56.88" fill="#5b6770" xml:space="preserve"><path d="M1.66 6.36h25.71l.24 6.4h-1.09c-.53-2.01-1.21-3.32-2.03-3.93-.82-.61-2.55-.91-5.18-.91h-2.53V27.2c0 1.45.27 2.35.82 2.7.55.35 1.75.58 3.6.69v.7H7.94v-.7c1.92-.12 3.12-.38 3.6-.79.47-.4.71-1.42.71-3.04V7.93H9.69c-2.52 0-4.23.3-5.14.9-.91.6-1.59 1.91-2.05 3.94H1.39l.27-6.41zM56.35 6.36v.7c-1.75.1-2.88.34-3.4.73-.52.39-.78 1.27-.78 2.66V22.5c0 1.98.33 3.51.98 4.62 1.21 2.01 3.51 3.02 6.9 3.02 3.71 0 6.21-1.03 7.48-3.09.71-1.15 1.07-2.93 1.07-5.34V11.9c0-2.05-.3-3.33-.89-3.85-.59-.53-1.71-.85-3.37-.99v-.7h10.52v.7c-1.76.16-2.91.51-3.45 1.06s-.81 1.81-.81 3.78v9.81c0 2.6-.48 4.63-1.44 6.09-1.78 2.69-5.15 4.03-10.12 4.03-4.91 0-8.26-1.32-10.03-3.97-.96-1.42-1.44-3.3-1.44-5.63V10.45c0-1.37-.26-2.25-.77-2.64-.51-.39-1.62-.63-3.34-.75v-.7h12.89zM91.52 23.71c.77 1.69 1.67 3.04 2.7 4.05 1.8 1.75 4.04 2.63 6.72 2.63 1.45 0 2.7-.38 3.76-1.14 1.06-.76 1.59-1.82 1.59-3.18 0-1.23-.53-2.29-1.6-3.2-.69-.58-2.16-1.44-4.39-2.59l-3.88-2.01c-1.17-.61-2.1-1.23-2.79-1.86-1.29-1.19-1.93-2.5-1.93-3.94 0-1.9.76-3.48 2.29-4.75 1.52-1.26 3.54-1.9 6.06-1.9 1.04 0 2.28.21 3.74.64 1.46.42 2.29.63 2.5.63.56 0 .95-.11 1.17-.33.21-.22.38-.53.5-.94h.93l1 8.02h-1.09c-.74-2.42-1.93-4.1-3.56-5.06-1.64-.96-3.25-1.44-4.85-1.44-1.24 0-2.33.3-3.25.91-.92.61-1.39 1.45-1.39 2.53 0 .97.35 1.8 1.06 2.48.71.7 1.81 1.43 3.3 2.19l3.99 2.04c2.5 1.28 4.26 2.45 5.29 3.51 1.01 1.08 1.52 2.36 1.52 3.83 0 1.98-.9 3.63-2.7 4.95-1.8 1.32-4.1 1.99-6.89 1.99-1.41 0-2.88-.22-4.41-.66s-2.41-.66-2.63-.66c-.53 0-.89.14-1.08.4-.19.27-.31.56-.37.86h-1l-1.35-8.02h1.04zM128.6 6.36h25.71l.24 6.4h-1.09c-.53-2.01-1.21-3.32-2.03-3.93-.82-.61-2.55-.91-5.18-.91h-2.53V27.2c0 1.45.27 2.35.82 2.7.55.35 1.75.58 3.6.69v.7h-13.25v-.7c1.92-.12 3.12-.38 3.6-.79.47-.4.71-1.42.71-3.04V7.93h-2.55c-2.52 0-4.23.3-5.14.9-.91.6-1.6 1.91-2.05 3.94h-1.11l.25-6.41zM175.76 30.6c1.85-.11 3.05-.34 3.6-.69.55-.35.82-1.25.82-2.7V10.45c0-1.39-.27-2.28-.82-2.68-.55-.4-1.75-.63-3.6-.71v-.7h13.45v.7c-1.85.07-3.05.31-3.6.71-.55.4-.82 1.29-.82 2.68v16.76c0 1.45.27 2.35.82 2.7.55.35 1.75.58 3.6.69v.7h-13.45v-.7zM207.23 30.6c1.88-.16 3.09-.51 3.62-1.06.53-.55.8-1.81.8-3.8V9.14l-.62-.61c-.67-.65-1.23-1.05-1.7-1.2-.47-.15-1.17-.24-2.1-.27v-.7h7.76l17.55 18.03V11.87c0-2.06-.37-3.4-1.11-4.02-.49-.4-1.57-.66-3.24-.79v-.7h10.68v.7c-1.73.15-2.89.5-3.46 1.05-.58.55-.87 1.82-.87 3.79v19.84h-.78l-20.11-20.66v14.67c0 2.06.36 3.4 1.09 4.03.47.4 1.53.68 3.17.83v.7h-10.68v-.71zM274.87 6.53c1.7.4 2.68.61 2.93.61.65 0 1.11-.1 1.39-.31.27-.21.51-.51.7-.9h1l.36 7.93h-1.04c-.93-1.83-1.89-3.19-2.89-4.08-1.79-1.57-4.12-2.36-6.99-2.36-2.92 0-5.48.92-7.69 2.75s-3.32 4.86-3.32 9.06c0 3.47 1.1 6.18 3.31 8.13 2.21 1.95 4.93 2.93 8.17 2.93.55 0 1.19-.04 1.93-.13s1.44-.22 2.11-.4c1.08-.29 1.75-.55 2.02-.76.27-.21.4-.53.4-.95v-6c0-1.46-.25-2.36-.74-2.72-.5-.36-1.58-.58-3.25-.67v-.7h11.59v.7c-1.13.06-1.87.21-2.24.46-.62.39-.93 1.2-.93 2.43v7.42c0 .44-1.31 1.03-3.92 1.77s-5.13 1.1-7.54 1.1c-4.44 0-8.18-1.07-11.23-3.22-3.36-2.37-5.04-5.54-5.04-9.53 0-3.51 1.34-6.51 4.02-9.02 2.95-2.76 6.85-4.14 11.72-4.14 1.74-.01 3.47.19 5.17.6z"/><path class="st0" d="M45.14 52.18v-3.51h-3.31v3.51h-1.75v-7.86h1.75v3h3.31v-3h1.76v7.86h-1.76zM57.05 50.56h-3.12l-.59 1.62H51.5l3.02-7.86h2l3 7.86H57.6l-.55-1.62zm-.5-1.35-1.06-3.09-1.09 3.09h2.15zM70.97 52.18H69.2l-3.46-5.58v5.58H64.1v-7.86h1.85l3.37 5.49v-5.49h1.65v7.86zM79.86 52.18h-3.65v-7.86h3.65c.52.01.96.06 1.31.17.59.18 1.07.51 1.44 1 .29.39.5.81.6 1.27.11.46.16.89.16 1.3 0 1.04-.23 1.93-.68 2.66-.6.97-1.55 1.46-2.83 1.46zm1.32-5.86c-.27-.43-.81-.64-1.61-.64h-1.63v5.13h1.63c.83 0 1.42-.38 1.75-1.15.18-.42.27-.92.27-1.5-.01-.79-.14-1.41-.41-1.84zM89.92 52.18h-1.65v-7.86h2.57l1.54 6.18 1.53-6.18h2.54v7.86H94.8v-5.32c0-.15 0-.37.01-.64s.01-.49.01-.64l-1.6 6.6H91.5l-1.59-6.6c0 .15 0 .36.01.64s.01.49.01.64v5.32zM106.58 50.56h-3.12l-.59 1.62h-1.85l3.02-7.86h2l3 7.86h-1.92l-.54-1.62zm-.49-1.35-1.06-3.09-1.09 3.09h2.15zM117.29 52.18h-3.65v-7.86h3.65c.52.01.96.06 1.31.17.59.18 1.07.51 1.44 1 .29.39.5.81.6 1.27.11.46.16.89.16 1.3 0 1.04-.23 1.93-.68 2.66-.61.97-1.56 1.46-2.83 1.46zm1.31-5.86c-.27-.43-.81-.64-1.61-.64h-1.63v5.13h1.63c.83 0 1.42-.38 1.75-1.15.18-.42.27-.92.27-1.5-.01-.79-.14-1.41-.41-1.84zM131.57 48.74h-4.11v2.02h4.69v1.41h-6.41v-7.86h6.21v1.39h-4.48v1.67h4.11v1.37zM143.71 44.32h1.76v7.86h-1.76v-7.86zM157.57 52.18h-1.77l-3.46-5.58v5.58h-1.65v-7.86h1.85l3.37 5.49v-5.49h1.65v7.86zM175.43 48.74h-4.11v2.02h4.69v1.41h-6.41v-7.86h6.21v1.39h-4.48v1.67h4.11v1.37zM187.77 52.18H186l-3.46-5.58v5.58h-1.65v-7.86h1.85l3.37 5.49v-5.49h1.65v7.86zM198.22 51.98c-.47.27-1.04.4-1.72.4-1.12 0-2.04-.36-2.76-1.08-.75-.73-1.12-1.72-1.12-2.98 0-1.27.38-2.29 1.13-3.06.75-.77 1.75-1.15 2.99-1.15 1.08 0 1.94.25 2.59.76.65.51 1.03 1.14 1.12 1.9h-1.74c-.13-.54-.46-.91-.98-1.12-.29-.12-.61-.18-.97-.18-.68 0-1.24.24-1.68.72-.44.48-.66 1.2-.66 2.16 0 .97.24 1.65.71 2.05.47.4 1.01.6 1.62.6.59 0 1.08-.16 1.46-.48.38-.32.61-.73.7-1.25h-1.96v-1.31h3.53v4.22h-1.17l-.18-.98c-.33.37-.64.63-.91.78zM205.73 44.32h1.77v6.45h4.19v1.41h-5.96v-7.86zM221.61 50.56h-3.12l-.59 1.62h-1.85l3.02-7.86h2l3 7.86h-1.92l-.54-1.62zm-.49-1.35-1.06-3.09-1.09 3.09h2.15zM235.53 52.18h-1.77l-3.46-5.58v5.58h-1.65v-7.86h1.85l3.37 5.49v-5.49h1.65v7.86zM244.43 52.18h-3.65v-7.86h3.65c.52.01.96.06 1.31.17.59.18 1.07.51 1.44 1 .29.39.5.81.6 1.27.11.46.16.89.16 1.3 0 1.04-.23 1.93-.68 2.66-.61.97-1.55 1.46-2.83 1.46zm1.31-5.86c-.27-.43-.81-.64-1.61-.64h-1.63v5.13h1.63c.83 0 1.42-.38 1.75-1.15.18-.42.27-.92.27-1.5-.01-.79-.14-1.41-.41-1.84z"/></svg>