<svg xmlns="http://www.w3.org/2000/svg" viewBox="0 0 169 85"><g fill="#fff" fill-rule="nonzero"><path d="M136.78 45.92c.9-1.88 1.8-3.75 2.68-5.64.08-.17.07-.41.04-.6-.24-1.26-.5-2.52-.73-3.79-.15-.82-.28-1.65-.36-2.48-.12-1.16-.88-1.73-1.83-2.19-.85-.41-1.74-.79-2.48-1.36-1.11-.85-1.05-1.46.06-2.41-.56-.33-1.12-.62-1.64-.97-.34-.23-.65-.51-.95-.81-.59-.59-.58-1.27-.26-2.03-.76-.46-1.56-.89-2.3-1.4-.54-.37-1.08-.78-1.5-1.28-.6-.7-.39-1.51.39-2.04.74-.5 1.56-.54 2.43-.65-.28-.07-.55-.17-.83-.21-.98-.16-1.94-.4-2.74-1.04-.99-.79-1.02-1.39-.18-2.26-.48-.61-1.01-1.19-1.41-1.84-.59-.95-.17-1.97.89-2.37.48-.18.96-.34 1.44-.51-.5-.84-1.03-1.66-1.5-2.52-.44-.82-.89-1.64-1.19-2.51-.69-1.97.89-4.42 3.29-4.5 1.49-.05 2.72.57 3.9 1.36 1.75 1.17 2.49 2.94 2.92 4.9.07.3.11.6.17.89.01.03.04.06.03.04.76-.53 1.5-1.07 2.27-1.57 1.07-.7 3.53-.68 4.2.9.2.48.32 1.1.19 1.58-.28 1.05-.75 2.06-1.15 3.08-.11.28-.24.55-.39.91.41-.08.74-.17 1.07-.2.3-.02.61-.03.9.04.84.21 1.11.59 1.17 1.45.08 1.16-.33 2.2-.71 3.25-.23.61-.53 1.2-.8 1.8 1.72.51 2.02 1.83.8 3.42-.38.5-.8.96-1.23 1.47.1.06.21.11.3.19.68.55.64 1.17-.15 1.91-.26.24-.54.47-.85.75.24.12.46.21.66.33.42.23.6.61.51 1.05-.29 1.38-.74 2.69-1.39 3.95-.32.62-.4 1.49-.27 2.19.14.78.65 1.5 1 2.24.06-.01.12-.02.19-.04.3-.6.6-1.2.91-1.8 1.19-2.3 2.35-4.63 3.61-6.89.38-.67.49-1.29.47-2.02-.05-1.9.36-3.73 1.09-5.48.37-.88.8-1.09 1.77-.98-.08-.76-.18-1.5-.24-2.25-.19-2.13-.54-4.26-.07-6.39.04-.2.13-.4.23-.58.31-.55.8-.7 1.27-.27.59.54 1.11 1.16 1.64 1.73.16-.68.33-1.45.52-2.21.49-1.9 1.14-3.74 2.27-5.36.23-.33.55-.63.89-.86.51-.36 1.17-.27 1.51.25.33.5.58 1.06.76 1.63.17.53.21 1.11.32 1.76.32-.45.61-.86.92-1.27.67-.89 1.3-1.82 2.04-2.65.89-1 2.1-1.46 3.4-1.67.63-.1 1.3-.16 1.92-.07 1.28.2 1.63 1.07.83 2.08-.98 1.23-2.05 2.39-3.1 3.56-.25.28-.59.48-.95.78.31.19.45.28.59.36.78.41.99 1.19.45 1.9-.79 1.04-1.81 1.84-2.98 2.43-.22.11-.45.2-.67.31-.73.37-1.16.85-1.06 1.79.11 1.04-.36 1.92-1.26 2.53-.93.63-1.89 1.21-2.76 1.91-.61.5-1.18 1.1-1.58 1.77-1.24 2.03-2.64 3.89-4.4 5.5-.6.54-1.03 1.3-1.43 2.02-2.61 4.72-4.84 9.62-6.92 14.6-1.4 3.36-2.8 6.73-4.2 10.1-.38.91-.68 1.85-1.1 2.73-.21.44-.56.83-.92 1.17-1.19 1.14-2.56 1.48-4.23 1.19-3.64-.64-7.05-1.97-10.5-3.22-2.83-1.03-5.69-1.93-8.7-2.25-3.46-.37-6.85-.01-10.15 1.03-3.11.98-6.18 2.12-9.28 3.16-2.38.8-4.82 1.44-7.34 1.54-2.16.09-4.3-.26-6.35-.88-3.09-.93-6.13-2.02-9.18-3.06-3.66-1.25-7.36-2.17-11.27-2.03-3.63.13-7.03 1.18-10.41 2.37-2.87 1-5.76 1.94-8.66 2.84-.92.28-1.9.41-2.86.51-.8.08-1.59-.02-2.25-.59-.52-.45-1.08-.88-1.59-1.34-.15-.13-.22-.35-.3-.54-1.9-4.59-3.76-9.2-5.69-13.77-1.18-2.8-2.42-5.58-3.74-8.32-1.06-2.22-2.26-4.37-3.44-6.52-.25-.45-.67-.82-1.07-1.17-1.56-1.35-2.75-3-3.8-4.74-.69-1.15-1.52-2.1-2.72-2.76-.82-.45-1.57-1.07-2.29-1.68-.71-.61-.97-1.46-.87-2.37.07-.67-.17-1.1-.72-1.4-.27-.15-.53-.31-.8-.43-1.19-.53-2.17-1.33-3.01-2.3-.77-.9-.61-1.65.42-2.21.08-.04.16-.09.3-.17-.77-.82-1.53-1.6-2.26-2.42-.6-.68-1.2-1.37-1.74-2.1-.65-.89-.36-1.67.68-1.97.93-.27 1.85-.05 2.76.16 1.95.44 3.21 1.74 4.23 3.37.45.71.99 1.37 1.48 2.04.18-.79.31-1.57.54-2.31.19-.61.44-1.25 1.17-1.42.82-.19 1.34.34 1.75.92 1.16 1.65 1.83 3.52 2.33 5.46.19.75.36 1.51.53 2.24.45-.52.91-1.08 1.41-1.6.78-.81 1.55-.32 1.68.57.18 1.19.24 2.42.19 3.62-.07 1.71-.28 3.41-.43 5.12.95-.13 1.4.14 1.78 1.09.8 1.96 1.11 4.01 1.06 6.12-.01.32.15.67.31.97.69 1.33 1.42 2.63 2.11 3.96.86 1.66 1.7 3.33 2.61 5.11.59-.89 1.1-1.68 1.21-2.73.14-1.34-.77-2.3-1.09-3.47-.18-.64-.44-1.26-.58-1.9-.2-.89-.03-1.16.81-1.55.09-.04.17-.08.23-.11-.34-.36-.7-.68-.99-1.06-.66-.84-.57-1.25.32-1.8-.53-.71-1.09-1.39-1.58-2.13-.55-.83-.47-1.88.18-2.39.26-.21.63-.28.99-.43-.21-.45-.45-.92-.64-1.4-.45-1.13-.92-2.25-.87-3.5.05-1.09.86-1.78 1.96-1.63.35.05.7.14 1.17.23-.29-.7-.56-1.31-.81-1.92-.25-.63-.56-1.25-.72-1.91-.4-1.62.52-2.84 2.18-3.06 1.23-.17 2.22.34 3.17 1.02.44.31.85.67 1.24.98.27-.89.52-1.79.81-2.69.45-1.41 1.32-2.5 2.57-3.3C37.59.9 38.77.36 40.18.4c2.12.07 3.69 2.08 3.4 3.9-.12.71-.44 1.41-.77 2.06-.62 1.21-1.31 2.38-1.98 3.59.38.14.83.31 1.28.47 1.3.47 1.66 1.6.83 2.7-.4.53-.84 1.02-1.26 1.53.97.98.6 2.19-.88 2.73-.71.26-1.46.39-2.19.59-.23.06-.45.14-.54.17.71.21 1.54.34 2.26.68.9.43 1.1 1.37.4 2.08-.66.68-1.49 1.21-2.28 1.76-.46.32-.98.56-1.46.84.48 1.4.07 1.96-1.18 2.85-.52.37-1.1.64-1.65.96.02.06.03.11.05.13 1.23.93.87 1.77-.33 2.58-.65.44-1.4.75-2.13 1.08-1.01.45-1.77 1.07-1.89 2.27-.08.81-.2 1.62-.35 2.42-.19 1.06-.42 2.11-.65 3.17-.13.59-.14 1.13.15 1.7.85 1.71 1.67 3.43 2.55 5.24.45-.79.81-1.47 1.21-2.13 1.16-1.95 2.59-3.69 4.19-5.31.39-.4.74-.88.96-1.39.22-.5.26-1.09.37-1.64.1-.5.15-1.01.3-1.49.21-.63.63-.83 1.36-.69 0-.46-.02-.9.01-1.35.03-.53.03-1.07.16-1.57.34-1.23 1.77-1.77 2.95-1.21.76.36 1.32.86 1.56 1.7.15-.98.25-1.96.45-2.93.39-1.84.91-3.64 2.12-5.13.39-.49.95-.88 1.5-1.19.7-.39 1.42-.16 1.9.67.82 1.41.91 3 1.02 4.57.02.26.02.51.03.77.05.02.11.03.16.05.32-.77.67-1.53.96-2.32.31-.81.52-1.67.87-2.46.59-1.36 1.47-1.47 2.48-.34.34-.28.7-.55 1.04-.84.81-.68 1.76-.98 2.8-.83.86.12 1.36.79 1.68 1.5 1.07 2.34 1.25 4.79.55 7.27-.39 1.36-1.15 2.5-2.38 3.29-.76.49-1.5 1.01-2.29 1.54.46.39.91.73 1.31 1.13.71.7 1.3 1.49.92 2.55-.14.4-.45.79-.78 1.08-1.1.96-2.46 1.2-3.87 1.25-.55.02-1.09 0-1.75 0 .18.24.31.37.39.52.85 1.45.33 2.23-.81 2.97-1.18.76-2.49 1.19-3.94 1.06-1.49-.13-2.89-.55-4.26-1.13-.63-.27-1.28-.51-1.91-.77-.04.04-.08.09-.12.13.09.21.15.43.26.62.36.62.39 1.06.02 1.46-.11.12-.27.22-.42.25-1.26.21-2.4-.08-3.28-1.02-.69-.74-1.59-1-2.46-1.34-.11-.04-.35.01-.42.11-1.46 1.91-2.66 3.92-1.98 6.47.39 1.47 1.76 3.07 3.76 3.02 2.72-.07 5.27-.65 7.74-1.79 2.8-1.28 5.7-2.32 8.74-2.9 4.27-.82 8.46-.41 12.54.99 3.07 1.06 6.07 2.3 9.09 3.48 1.44.56 2.94.52 4.43.52.15 0 .43-.29.44-.47.1-1.34.15-2.67-.56-3.91-.4-.7-.99-1.19-1.69-1.54-1.48-.74-2.99-1.43-4.46-2.18-2.52-1.29-4.14-3.32-4.61-6.13-.2-1.19-.08-2.42 1.07-3.2.28-.19.66-.31 1-.31 8.17.01 16.33.04 24.5.06.87 0 1.74.8 1.95 1.77.42 1.89-.23 3.54-1.22 5.07-.93 1.44-2.29 2.37-3.83 3.08-1.37.63-2.75 1.26-4.09 1.96-1.67.87-2.28 2.36-2.26 4.18.03 2.05-.05 1.74 1.8 1.74 1.63 0 3.12-.47 4.62-1.07 2.84-1.13 5.68-2.29 8.58-3.23 5.53-1.78 11.03-1.43 16.44.6 1.78.67 3.56 1.34 5.29 2.13 1.5.68 3.06.99 4.67 1.12.83.07 1.68.13 2.5.04 1.43-.16 2.23-1.17 2.81-2.37.55-1.15.61-2.38.15-3.53-.47-1.17-1.16-2.24-1.76-3.35-.19-.35-.47-.37-.81-.22-.84.38-1.69.69-2.36 1.41-.83.88-1.96 1.1-3.15.91-.54-.09-.83-.71-.59-1.31.13-.34.31-.66.47-.99-.04-.06-.08-.11-.12-.17-.65.26-1.3.5-1.95.77-1.84.77-3.71 1.37-5.74 1.05-1.26-.2-2.38-.76-3.28-1.69-.58-.6-.5-1.69.15-2.45.06-.07.12-.13.32-.33-.71 0-1.26.02-1.82 0-1.28-.06-2.52-.26-3.61-1.04-1.68-1.18-1.36-2.65-.12-3.85.39-.38.83-.71 1.3-1.12-.75-.51-1.48-1.03-2.24-1.52-1.37-.88-2.13-2.16-2.51-3.71-.57-2.31-.39-4.56.57-6.72.88-1.97 2.41-2.16 4.32-.99.45.27.82.67 1.22 1 .04-.02.09-.02.11-.04.99-1.33 1.89-.72 2.46.57.6 1.35 1.05 2.75 1.58 4.13.06.16.17.31.28.51.14-1.19.22-2.3.42-3.39.12-.66.38-1.31.67-1.92.63-1.29 1.68-1.05 2.45-.52 1.21.84 1.84 2.08 2.35 3.4.68 1.8 1.02 3.67 1.18 5.67.21-.4.33-.76.56-1.03.84-.97 2.16-1.25 3.3-.64.77.41.78 1.26.86 1.99.07.65.02 1.32.02 1.98.84-.07 1.18.13 1.43.94.12.38.22.78.2 1.17-.05 1.14.35 2.12 1.12 2.89 2.22 2.26 4.11 4.73 5.68 7.62ZM29.02 30.24c.46-.01.46-.07.56-.48.36-1.48.74-2.96 1.14-4.44.28-1.04.58-2.07.94-3.08.18-.51.2-1.11 1.04-1.25 1.13-.18 2.22-.6 3.31-.95.22-.07.4-.3.6-.45-.03-.05-.06-.1-.08-.15-1.3.01-2.59.61-3.98.11.4-1.04.86-2.06 1.16-3.12.34-1.16 1.15-1.52 2.21-1.67.97-.13 1.94-.32 2.9-.5.18-.03.34-.14.51-.21l-.06-.25h-4.45c.26-.5.45-.88.65-1.25l2.25-4.44c.76-1.5 1.52-2.99 2.27-4.49.08-.15.06-.35.09-.53a.88.88 0 0 0-.15-.05c-1.34 1.34-2.24 3.01-3.39 4.63-.24-.77-.45-1.45-.67-2.13-.42-.04-.51.24-.48.54.07.69.19 1.38.27 2.07.04.34.19.76.06 1.03-.59 1.16-1.27 2.28-1.85 3.31-.94-.92-1.85-1.89-2.84-2.76-.44-.38-.82-.98-1.65-.91.42.54.81 1.02 1.18 1.5.83 1.06 1.65 2.12 2.47 3.17.18.23.17.43.04.72-.42.9-.78 1.84-1.17 2.76-.3.72-.6 1.45-.97 2.36-.94-1.11-1.77-2.1-2.61-3.09-.11.35-.17.71-.03.96.44.83.9 1.65 1.46 2.4.49.66.94 1.25.63 2.14-.2.55-.3 1.13-.49 1.68-.75 2.19-.8 4.48-.87 6.82Zm102.7-10.68c-.03.07-.05.13-.08.2.24.15.47.36.73.44 1.15.36 2.32.66 3.48 1.01.17.05.37.21.43.38.2.47.35.95.5 1.44.3.95.61 1.9.87 2.87.38 1.4.72 2.81 1.09 4.22.03.11.18.18.28.28.07-.11.2-.23.19-.33-.07-1.31-.05-2.63-.27-3.92-.23-1.35-.69-2.67-1.02-4.01-.17-.7-.39-1.39.26-2.05.55-.56.97-1.25 1.39-1.92.33-.54.62-1.13.35-1.85l-2.61 3.08c-.15-.26-.22-.35-.26-.45-.67-1.6-1.34-3.2-1.99-4.81-.05-.12 0-.34.08-.45.6-.82 1.21-1.64 1.83-2.44.6-.77 1.22-1.51 1.84-2.27-1.93.76-3.22 2.21-4.42 3.75-.49-.88-.92-1.75-1.44-2.56-.47-.73-.64-1.41-.33-2.26.2-.55.17-1.19.18-1.79 0-.15-.21-.31-.32-.46-.1.14-.23.26-.28.41-.18.54-.34 1.09-.53 1.72-1.17-1.63-2.07-3.3-3.5-4.58 1.29 3.75 3.64 6.99 5.16 10.68-1.54-.01-2.99-.22-4.42.27.18.13.37.22.57.25 1.12.2 2.25.34 3.35.61.48.12 1.06.37 1.31.75.44.67.67 1.47.96 2.23.21.56.38 1.13.57 1.7-1.35.47-2.65-.14-3.95-.14Zm-2.53 20.83c-2.03-.92-4.05-1.82-6.04-2.72.4-1.71.26-4.11-.31-4.7-.56 1.26-.56 2.6-.87 4.01-1.71-1.31-3.31-2.57-4.94-3.78-.4-.3-.41-.6-.38-1.02.06-.9.09-1.8.08-2.7 0-.19-.2-.39-.31-.58-.12.17-.3.32-.33.5-.15.84-.26 1.69-.38 2.54-.07.05-.13.1-.2.15-1-1.07-1.99-2.15-3.02-3.19-.32-.32-.37-.6-.28-1.04.15-.76.28-1.56-.23-2.45-.22.85-.4 1.54-.6 2.3-1.29-1.62-2.42-2.82-3.46-2.64 1.52 2.11 3.37 3.88 5.07 5.91-1.66-.09-3.22-.18-4.79-.26-.01.07-.03.14-.04.21.09.06.18.14.28.18.52.22 1.04.45 1.57.65 1.24.46 2.5.76 3.83.46.39-.09.63.09.9.34.96.88 1.93 1.75 2.93 2.58 1.1.91 2.25 1.76 3.48 2.72l-5.55 1.22v.17c.45.1.89.24 1.34.29 1.88.21 3.71-.03 5.49-.69.14-.05.33-.04.46.02 1.79.85 3.64 1.57 5.57 2.05.42.09.68.04.73-.53Zm-69.22-9.57c-.01-.06-.01-.13-.02-.19-1.54.08-3.09.16-4.71.24 1.7-2.05 3.58-3.8 5.13-6.01-1.75.29-2.46 1.66-3.51 2.73-.19-.75-.37-1.45-.55-2.15-.19.2-.34.4-.33.6.01.64.1 1.28.12 1.93.01.2 0 .47-.12.6-1.05 1.16-2.13 2.29-3.2 3.43l-.24-.15c-.12-.85-.23-1.7-.38-2.54-.03-.19-.21-.35-.32-.52-.11.19-.24.38-.33.59-.04.1-.01.23-.01.34.04.89.1 1.78.13 2.67.01.17-.01.42-.12.5-1.71 1.33-3.44 2.64-5.26 4.02-.27-1.43-.33-2.76-.89-4-.15.18-.26.35-.29.53-.17 1.24-.29 2.48-.04 3.73.03.14-.05.4-.15.45-.84.43-1.69.83-2.55 1.22-.94.43-1.9.82-2.84 1.26-.15.07-.23.31-.34.47.21.07.43.23.61.19 1.94-.44 3.78-1.18 5.58-2.03.14-.06.32-.1.47-.06.95.23 1.88.56 2.85.69.91.12 1.85.06 2.78.02.42-.02.83-.18 1.24-.28 0-.04 0-.08-.01-.12l-5.54-1.21c.1-.14.11-.18.14-.2 2.14-1.77 4.28-3.55 6.43-5.31.15-.12.39-.15.6-.16.72-.01 1.44.07 2.15-.01 1.28-.14 2.43-.65 3.52-1.27ZM160.21 9.68l1.97-2.19c1.2-1.36 2.4-2.72 3.59-4.09.13-.15.18-.37.26-.56-.05-.03-.09-.06-.14-.09-1.79.89-2.85 2.63-4.34 3.97-.11-.41-.19-.76-.31-1.09-.05-.15-.2-.26-.31-.39-.12.15-.34.31-.33.45.03.48.16.96.22 1.44.02.18.04.43-.06.54-.84.98-1.7 1.93-2.55 2.89-.5.56-1.01 1.12-1.56 1.73-.05-1.02-.07-1.93-.16-2.84-.08-.73-.24-1.45-.41-2.17-.03-.14-.23-.25-.35-.37-.05.03-.1.06-.14.08 0 .32-.01.63 0 .95.03 1.06.15 2.13.07 3.18-.09 1.25.14 2.57-.98 3.61-.76.71-1.33 1.62-1.99 2.46-.27-.97-.49-1.91-.81-2.81-.26-.72-.55-1.47-1.5-1.79.08.28.12.48.18.67.38 1.2.81 2.39 1.11 3.6.18.73.41 1.54-.35 2.18-.31.26-.52.65-.78.97-.99 1.2-1.7 2.54-2.08 4.05-.06.23-.05.47-.07.7.34-.23.59-.5.79-.81 1.39-2.13 2.42-4.49 4.29-6.29.18-.17.37-.34.49-.56.5-.96 1.27-1.3 2.33-1.1.62.11 1.08-.16 1.4-.8h-2.07c.98-1.25 1.9-2.39 2.77-3.56.61-.82 1.24-1.47 2.42-1.27.35.06.76-.22 1.14-.35-.02-.07-.03-.15-.05-.22-.53-.02-1.03-.06-1.69-.12ZM19.66 24.75l.24-.09c-.05-.31-.09-.63-.17-.94-.44-1.75-1.49-3.16-2.58-4.55-.29-.37-.8-.82-.75-1.15.26-1.46.67-2.89 1.05-4.32.1-.39.29-.75.44-1.12-.05-.04-.11-.07-.16-.11-.21.16-.51.28-.62.5-.37.69-.73 1.4-1 2.14-.23.62-.34 1.3-.51 2.02-.73-.93-1.4-1.79-2.08-2.64-.38-.47-.83-.88-.83-1.56.01-1.72-.01-3.45-.01-5.18v-.88c-.06-.03-.13-.05-.19-.08-.11.15-.3.3-.33.47-.16.82-.3 1.64-.39 2.46-.09.8-.11 1.6-.16 2.37-.19-.17-.4-.32-.56-.51-1.11-1.27-2.19-2.56-3.34-3.79-.33-.37-.35-.59-.19-1.02.15-.39.14-.85.13-1.28 0-.12-.23-.25-.35-.37-.08.11-.2.2-.24.32-.13.36-.23.73-.37 1.15-1.49-1.33-2.52-3.08-4.4-3.86 1.48 2.61 3.9 4.44 5.69 6.84-.61.06-1.14.11-1.74.16.78.65.88.6 2.02.58.37-.01.64.05.88.36 1.14 1.46 2.31 2.9 3.56 4.48h-2.17c.46.86 1.2.85 1.92.76.67-.08 1.06.16 1.52.67 1.73 1.92 3.24 3.97 4.46 6.24.37.66.82 1.29 1.23 1.93Z"/><path d="M83.51 8.53h2.13c.01.19-.01.38.04.55.09.3.17.64.35.88 1.04 1.35 2.42 2.32 3.7 3.42 2.88 2.49 5.09 5.44 6.29 9.11.83 2.51 1.14 5.08.98 7.7-.09 1.57-.63 3.01-2.27 3.61-.48.18-1.1.01-1.65-.05-.09-.01-.23-.36-.19-.52.36-1.61.22-3.23-.03-4.82-.31-2-.96-3.89-2.14-5.58-.05-.07-.13-.12-.24-.21.36 2.27.41 4.48.12 6.7-.04.3-.04.61-.02.91.05 1.13-.47 1.94-1.3 2.65-.91.78-1.89 1.1-3.11 1.08-3.69-.08-7.38-.09-11.08-.04-2.25.03-3.44-1.62-3.61-3.39-.21-2.16-.07-4.34.41-6.44.64-2.75 1.86-5.26 3.63-7.49 1.5-1.88 3.31-3.41 5.24-4.82.57-.42 1.06-.96 1.6-1.43.24-.2.63-.28.77-.52.21-.36.25-.82.38-1.3ZM9.03 70.17h13.9l.13 3.46h-.59c-.29-1.09-.65-1.8-1.1-2.12-.44-.33-1.38-.49-2.8-.49H17.2v10.43c0 .79.15 1.27.44 1.46.3.19.94.31 1.94.37v.38h-7.17v-.38c1.04-.07 1.69-.21 1.94-.43.26-.22.38-.77.38-1.64V71.02h-1.38c-1.36 0-2.29.16-2.78.49-.49.33-.86 1.04-1.11 2.13h-.6l.17-3.47ZM38.61 70.17v.38c-.94.05-1.56.18-1.84.39-.28.21-.42.69-.42 1.44v6.52c0 1.07.18 1.9.53 2.5.66 1.09 1.9 1.63 3.73 1.63 2.01 0 3.36-.56 4.05-1.67.38-.62.58-1.59.58-2.89v-5.3c0-1.11-.16-1.8-.48-2.08-.32-.28-.93-.46-1.82-.53v-.38h5.69v.38c-.95.09-1.57.28-1.87.57-.29.3-.44.98-.44 2.04v5.3c0 1.41-.26 2.5-.78 3.29-.96 1.45-2.79 2.18-5.47 2.18-2.66 0-4.47-.72-5.43-2.15-.52-.77-.78-1.78-.78-3.05v-6.37c0-.74-.14-1.22-.41-1.43-.28-.21-.88-.34-1.81-.4v-.38h6.97v.01ZM57.63 79.56c.42.92.9 1.65 1.46 2.19.98.95 2.19 1.42 3.63 1.42.78 0 1.46-.21 2.03-.62.57-.41.86-.99.86-1.72 0-.66-.29-1.24-.86-1.73-.38-.31-1.17-.78-2.37-1.4l-2.1-1.08c-.63-.33-1.13-.67-1.51-1.01-.7-.64-1.04-1.35-1.04-2.13 0-1.03.41-1.88 1.24-2.57.83-.69 1.92-1.03 3.28-1.03.56 0 1.23.11 2.02.34.79.23 1.24.34 1.35.34.3 0 .51-.06.63-.18s.21-.29.27-.51h.5l.54 4.34h-.59c-.4-1.31-1.04-2.22-1.93-2.74-.88-.52-1.76-.78-2.62-.78-.67 0-1.26.16-1.76.49-.5.33-.75.78-.75 1.37 0 .52.19.97.58 1.34.38.38.98.77 1.79 1.18l2.16 1.1c1.35.69 2.3 1.32 2.86 1.9.55.58.82 1.27.82 2.07 0 1.07-.49 1.96-1.46 2.68-.97.72-2.22 1.07-3.73 1.07-.76 0-1.55-.12-2.38-.36-.83-.24-1.3-.36-1.42-.36-.29 0-.48.07-.58.22-.1.15-.17.3-.2.47h-.55l-.73-4.34h.56v.04ZM77.69 70.17h13.9l.13 3.46h-.59c-.29-1.09-.65-1.8-1.1-2.12-.44-.33-1.38-.49-2.8-.49h-1.37v10.43c0 .79.15 1.27.44 1.46.3.19.94.31 1.94.37v.38h-7.17v-.38c1.04-.07 1.69-.21 1.95-.43s.38-.77.38-1.64V71.02h-1.38c-1.36 0-2.29.16-2.78.49-.49.33-.86 1.04-1.11 2.13h-.6l.16-3.47ZM103.19 83.28c1-.06 1.65-.18 1.94-.37.3-.19.44-.67.44-1.46v-9.07c0-.75-.15-1.23-.44-1.45-.3-.22-.94-.34-1.94-.38v-.38h7.28v.38c-1 .04-1.65.17-1.95.38-.3.22-.44.7-.44 1.45v9.07c0 .79.15 1.27.44 1.46.3.19.94.31 1.95.37v.38h-7.28v-.38ZM120.21 83.28c1.02-.09 1.67-.28 1.96-.57.29-.3.43-.98.43-2.05v-8.98l-.34-.33c-.36-.35-.67-.57-.92-.65-.25-.08-.63-.13-1.13-.14v-.38h4.2l9.49 9.75v-6.77c0-1.11-.2-1.84-.6-2.17-.26-.22-.85-.36-1.75-.43v-.38h5.78v.38c-.94.08-1.56.27-1.87.57-.31.3-.47.98-.47 2.05V83.9h-.42l-10.88-11.18v7.93c0 1.11.2 1.84.59 2.18.26.22.83.37 1.72.45v.38h-5.78v-.38h-.01ZM156.79 70.26c.92.22 1.45.33 1.58.33.35 0 .6-.06.75-.17.15-.11.27-.28.38-.49h.54l.19 4.29h-.56c-.5-.99-1.02-1.72-1.56-2.21-.97-.85-2.23-1.27-3.78-1.27-1.58 0-2.96.5-4.16 1.49-1.2.99-1.79 2.63-1.79 4.9 0 1.88.6 3.34 1.79 4.4 1.19 1.05 2.67 1.58 4.42 1.58.3 0 .64-.02 1.04-.07s.78-.12 1.14-.22c.58-.16.95-.3 1.09-.41.14-.12.22-.29.22-.51v-3.25c0-.79-.13-1.28-.4-1.47-.27-.19-.85-.31-1.76-.36v-.38h6.27v.38c-.61.03-1.01.12-1.21.25-.34.21-.5.65-.5 1.31v4.01c0 .24-.71.56-2.12.96-1.41.4-2.77.6-4.08.6-2.4 0-4.43-.58-6.08-1.74-1.82-1.28-2.73-3-2.73-5.15 0-1.9.72-3.52 2.17-4.88 1.59-1.49 3.71-2.24 6.34-2.24.96-.01 1.89.1 2.81.32Z"/></g></svg>