<?xml version="1.0" encoding="UTF-8"?>
<svg id="Layer_1" data-name="Layer 1" xmlns="http://www.w3.org/2000/svg" xmlns:xlink="http://www.w3.org/1999/xlink" viewBox="0 0 200 100">
  <defs>
    <style>
      .cls-1 {
        fill: none;
      }

      .cls-1, .cls-2 {
        stroke-width: 0px;
      }

      .cls-2 {
        fill: #fff;
      }

      .cls-3 {
        clip-path: url(#clippath);
      }

      .cls-4 {
        mask: url(#mask);
      }
    </style>
    <clipPath id="clippath">
      <rect class="cls-1" x="59" y="16" width="82" height="68"/>
    </clipPath>
    <mask id="mask" x="-3.99" y="-23.71" width="207.98" height="146.57" maskUnits="userSpaceOnUse">
      <g id="mask0_6_31" data-name="mask0 6 31">
        <path class="cls-2" d="m-3.99-23.71h207.98V122.87H-3.99V-23.71Z"/>
      </g>
    </mask>
  </defs>
  <g class="cls-3">
    <g class="cls-4">
      <g>
        <path class="cls-2" d="m76.49,83.56c-.69-.29-1.23-.71-1.6-1.26-.37-.55-.56-1.18-.56-1.9v-.38c0-.06.02-.11.06-.15.04-.04.09-.06.15-.06h1.97c.06,0,.11.02.15.06.04.04.06.09.06.15v.26c0,.46.21.85.64,1.16.43.32,1,.47,1.73.47.61,0,1.07-.13,1.37-.39.3-.26.45-.58.45-.96,0-.28-.09-.51-.28-.7-.18-.19-.44-.36-.75-.5-.32-.14-.82-.34-1.51-.59-.77-.26-1.43-.53-1.96-.81-.54-.28-.99-.65-1.35-1.13-.36-.48-.54-1.07-.54-1.77s.18-1.29.54-1.81c.36-.52.85-.91,1.49-1.19.63-.28,1.37-.41,2.2-.41.88,0,1.66.16,2.34.47.69.31,1.22.74,1.61,1.3.39.56.58,1.2.58,1.94v.26c0,.06-.02.11-.06.15-.04.04-.09.06-.15.06h-1.99c-.06,0-.11-.02-.15-.06-.04-.04-.06-.09-.06-.15v-.14c0-.48-.2-.89-.6-1.23-.4-.34-.94-.51-1.63-.51-.54,0-.97.11-1.27.34-.31.23-.46.55-.46.95,0,.29.09.53.27.72.18.2.44.37.8.53.35.16.9.36,1.63.63.82.3,1.46.56,1.93.79.47.23.89.57,1.26,1.03.37.45.56,1.04.56,1.77,0,1.08-.4,1.93-1.19,2.56-.8.63-1.87.94-3.23.94-.92,0-1.73-.15-2.42-.44Z"/>
        <path class="cls-2" d="m91.24,76.77c.32-.3.48-.7.48-1.2s-.16-.91-.48-1.22c-.32-.31-.75-.47-1.28-.47h-2.2c-.06,0-.09.03-.09.09v3.17c0,.06.03.09.09.09h2.2c.53,0,.96-.15,1.28-.46Zm1.09-4.52c.58.31,1.02.75,1.34,1.32.32.57.48,1.22.48,1.96s-.16,1.36-.49,1.91c-.33.55-.79.98-1.38,1.28-.59.3-1.28.46-2.05.46h-2.46c-.06,0-.09.03-.09.09v4.4c0,.06-.02.11-.06.15-.04.04-.09.06-.15.06h-2.02c-.06,0-.11-.02-.15-.06-.04-.04-.06-.09-.06-.15v-11.67c0-.06.02-.11.06-.15.04-.04.09-.06.15-.06h4.88c.76,0,1.43.16,2.01.47Z"/>
        <path class="cls-2" d="m98.18,80.05h3.04c.07,0,.09-.03.07-.1l-1.56-5.12s-.03-.07-.05-.06c-.02,0-.04.03-.05.06l-1.52,5.12c-.01.07.01.1.07.1Zm4.25,3.64l-.52-1.69s-.05-.07-.09-.07h-4.25s-.06.02-.09.07l-.5,1.69c-.03.12-.11.17-.22.17h-2.2c-.07,0-.12-.02-.16-.06-.03-.04-.04-.1-.02-.18l3.74-11.65c.03-.11.11-.17.22-.17h2.71c.11,0,.19.06.22.17l3.74,11.65s.02.05.02.09c0,.1-.06.16-.19.16h-2.2c-.11,0-.19-.06-.22-.17Z"/>
        <path class="cls-2" d="m108.36,83.47c-.68-.35-1.21-.84-1.57-1.47-.37-.63-.55-1.36-.55-2.19v-3.98c0-.83.18-1.56.55-2.19.37-.63.89-1.12,1.57-1.47.68-.34,1.47-.52,2.37-.52s1.67.16,2.34.49c.67.33,1.2.79,1.57,1.4.38.6.56,1.3.56,2.09,0,.1-.07.17-.21.19l-2.02.12h-.03c-.11,0-.17-.06-.17-.19,0-.61-.19-1.1-.56-1.46-.37-.37-.87-.55-1.48-.55s-1.12.18-1.5.55c-.38.37-.56.86-.56,1.46v4.15c0,.6.19,1.08.56,1.45.38.37.87.55,1.5.55s1.1-.18,1.48-.55c.38-.37.56-.85.56-1.45,0-.13.07-.19.21-.19l2.02.09c.06,0,.11.02.15.05.04.03.06.08.06.12,0,.79-.19,1.49-.56,2.1-.37.61-.9,1.08-1.57,1.41-.67.33-1.46.5-2.34.5s-1.69-.18-2.37-.53Z"/>
        <path class="cls-2" d="m125.61,73.82s-.09.06-.15.06h-5.67c-.06,0-.09.03-.09.09v2.67c0,.06.03.09.09.09h3.72c.06,0,.11.02.15.06.04.04.06.09.06.15v1.67c0,.06-.02.11-.06.15-.04.04-.09.06-.15.06h-3.72c-.06,0-.09.03-.09.09v2.79c0,.06.03.09.09.09h5.67c.06,0,.11.02.15.06.04.04.06.09.06.15v1.67c0,.06-.02.11-.06.15-.04.04-.09.06-.15.06h-7.99c-.06,0-.11-.02-.15-.06-.04-.04-.06-.09-.06-.15v-11.65c0-.06.02-.11.06-.15.04-.04.09-.06.15-.06h7.99c.06,0,.11.02.15.06.04.04.06.09.06.15v1.67c0,.06-.02.11-.06.15Z"/>
        <path class="cls-2" d="m67.34,58.32s-.09.06-.15.06h-5.67c-.06,0-.09.03-.09.09v2.67c0,.06.03.09.09.09h3.72c.06,0,.11.02.15.06.04.04.06.09.06.15v1.67c0,.06-.02.11-.06.15-.04.04-.09.06-.15.06h-3.72c-.06,0-.09.03-.09.09v2.79c0,.06.03.09.09.09h5.67c.06,0,.11.02.15.06.04.04.06.09.06.15v1.67c0,.06-.02.11-.06.15-.04.04-.09.06-.15.06h-7.99c-.06,0-.11-.02-.15-.06-.04-.04-.06-.09-.06-.15v-11.65c0-.06.02-.11.06-.15.04-.04.09-.06.15-.06h7.99c.06,0,.11.02.15.06.04.04.06.09.06.15v1.67c0,.06-.02.11-.06.15Z"/>
        <path class="cls-2" d="m72.32,64.55h3.04c.07,0,.09-.03.07-.1l-1.56-5.12s-.03-.07-.05-.06c-.02,0-.04.03-.05.06l-1.52,5.12c-.01.07.01.1.07.1Zm4.25,3.64l-.52-1.69s-.05-.07-.09-.07h-4.25s-.06.02-.09.07l-.5,1.69c-.03.11-.11.17-.22.17h-2.2c-.07,0-.12-.02-.16-.06-.03-.04-.04-.1-.02-.18l3.74-11.65c.03-.11.11-.17.22-.17h2.71c.12,0,.19.06.22.17l3.74,11.65s.02.05.02.09c0,.1-.06.16-.19.16h-2.2c-.12,0-.19-.06-.22-.17Z"/>
        <path class="cls-2" d="m83.14,58.46v2.95c0,.06.03.09.09.09h2.27c.48,0,.88-.14,1.18-.43.31-.29.46-.66.46-1.12s-.15-.84-.46-1.13c-.31-.29-.7-.44-1.18-.44h-2.27c-.06,0-.09.03-.09.09Zm3.96,9.74l-2.16-4.77s-.06-.07-.1-.07h-1.61c-.06,0-.09.03-.09.09v4.71c0,.06-.02.11-.06.15-.04.04-.09.06-.15.06h-2.02c-.06,0-.11-.02-.15-.06-.04-.04-.06-.09-.06-.15v-11.65c0-.06.02-.11.06-.15.04-.04.09-.06.15-.06h4.95c.74,0,1.39.15,1.95.45.56.3.99.72,1.3,1.28.31.55.46,1.19.46,1.91,0,.78-.2,1.45-.59,2.01-.39.56-.94.95-1.64,1.18-.06.02-.07.06-.05.12l2.35,4.88s.03.08.03.1c0,.09-.06.14-.19.14h-2.13c-.12,0-.2-.05-.24-.16Z"/>
        <path class="cls-2" d="m99.8,56.35s.06.09.06.15v1.69c0,.06-.02.11-.06.15-.04.04-.09.06-.15.06h-3.1c-.06,0-.09.03-.09.09v9.67c0,.06-.02.11-.06.15-.04.04-.09.06-.15.06h-2.02c-.06,0-.11-.02-.15-.06-.04-.04-.06-.09-.06-.15v-9.67c0-.06-.03-.09-.09-.09h-3.01c-.06,0-.11-.02-.15-.06-.04-.04-.06-.09-.06-.15v-1.69c0-.06.02-.11.06-.15.04-.04.09-.06.15-.06h8.72c.06,0,.11.02.15.06Z"/>
        <path class="cls-2" d="m107.91,56.35s.09-.06.15-.06h2.02c.06,0,.11.02.15.06.04.04.06.09.06.15v11.65c0,.06-.02.11-.06.15-.04.04-.09.06-.15.06h-2.02c-.06,0-.11-.02-.15-.06-.04-.04-.06-.09-.06-.15v-4.76c0-.06-.03-.09-.09-.09h-3.82c-.06,0-.09.03-.09.09v4.76c0,.06-.02.11-.06.15-.04.04-.09.06-.15.06h-2.02c-.06,0-.11-.02-.15-.06-.04-.04-.06-.09-.06-.15v-11.65c0-.06.02-.11.06-.15.04-.04.09-.06.15-.06h2.02c.06,0,.11.02.15.06.04.04.06.09.06.15v4.64c0,.06.03.09.09.09h3.82c.06,0,.09-.03.09-.09v-4.64c0-.06.02-.11.06-.15Z"/>
        <path class="cls-2" d="m120.62,58.32s-.09.06-.15.06h-5.67c-.06,0-.09.03-.09.09v2.67c0,.06.03.09.09.09h3.72c.06,0,.11.02.15.06s.06.09.06.15v1.67c0,.06-.02.11-.06.15-.04.04-.09.06-.15.06h-3.72c-.06,0-.09.03-.09.09v2.79c0,.06.03.09.09.09h5.67c.06,0,.11.02.15.06.04.04.06.09.06.15v1.67c0,.06-.02.11-.06.15s-.09.06-.15.06h-7.99c-.06,0-.11-.02-.15-.06s-.06-.09-.06-.15v-11.65c0-.06.02-.11.06-.15.04-.04.09-.06.15-.06h7.99c.06,0,.11.02.15.06.04.04.06.09.06.15v1.67c0,.06-.02.11-.06.15Z"/>
        <path class="cls-2" d="m125.5,68.28s-.06-.09-.06-.15v-4.36s0-.08-.02-.1l-3.56-7.14s-.04-.08-.04-.1c0-.09.06-.14.19-.14h2.18c.11,0,.2.05.24.16l2.16,4.58c.03.07.07.07.1,0l2.16-4.58c.05-.1.13-.16.24-.16h2.21c.08,0,.13.02.16.06.03.04.03.1,0,.18l-3.6,7.14s-.02.06-.02.1v4.36c0,.06-.02.11-.06.15-.04.04-.09.06-.15.06h-2.01c-.06,0-.11-.02-.15-.06Z"/>
        <path class="cls-2" d="m140.94,58.32s-.09.06-.15.06h-5.67c-.06,0-.09.03-.09.09v2.67c0,.06.03.09.09.09h3.72c.06,0,.11.02.15.06.04.04.06.09.06.15v1.67c0,.06-.02.11-.06.15-.04.04-.09.06-.15.06h-3.72c-.06,0-.09.03-.09.09v2.79c0,.06.03.09.09.09h5.67c.06,0,.11.02.15.06.04.04.06.09.06.15v1.67c0,.06-.02.11-.06.15-.04.04-.09.06-.15.06h-7.99c-.06,0-.11-.02-.15-.06-.04-.04-.06-.09-.06-.15v-11.65c0-.06.02-.11.06-.15.04-.04.09-.06.15-.06h7.99c.06,0,.11.02.15.06.04.04.06.09.06.15v1.67c0,.06-.02.11-.06.15Z"/>
        <path class="cls-2" d="m108.36,41.72c-2.22,2.21-5.17,3.43-8.32,3.43s-6.09-1.22-8.32-3.43l17.63-17.57.99-.99c-5.68-5.66-14.92-5.66-20.6,0-2.75,2.74-4.27,6.39-4.27,10.27s1.52,7.53,4.27,10.27c2.75,2.74,6.41,4.25,10.3,4.25s7.55-1.51,10.3-4.25c4.87-4.85,5.66-12.53,1.87-18.25l-2.04,2.03c2.7,4.56,1.97,10.46-1.82,14.24Z"/>
        <path class="cls-2" d="m114.33,23.35l-.61.6c4.62,6.61,3.84,15.5-1.9,21.22-6.49,6.47-17.06,6.47-23.56,0-6.49-6.47-6.49-17.01,0-23.48,6.16-6.14,15.97-6.45,22.51-.96-.1.2-.16.42-.16.66,0,.83.67,1.5,1.51,1.5s1.51-.67,1.51-1.5-.67-1.5-1.51-1.5c-.29,0-.55.08-.78.22-6.87-5.8-17.19-5.47-23.67.98-6.82,6.8-6.82,17.87,0,24.67,3.41,3.4,7.89,5.1,12.37,5.1s8.96-1.7,12.37-5.1c6.07-6.05,6.86-15.46,1.91-22.41Z"/>
      </g>
    </g>
  </g>
</svg>